<svg xmlns="http://www.w3.org/2000/svg" viewBox="0 0 1727.51 361.06"><defs><style>.cls-1,.cls-3,.cls-4,.cls-6,.cls-7,.cls-8{fill:#fff;}.cls-2{fill:none;stroke:#fff;stroke-miterlimit:10;stroke-width:4px;}.cls-3{font-size:157.87px;font-family:Gilroy-ExtraBold, Gilroy;font-weight:800;}.cls-4,.cls-6{font-size:141.15px;}.cls-4,.cls-6,.cls-7,.cls-8{font-family:BigNoodleTitling;}.cls-4{letter-spacing:0.33em;}.cls-5{letter-spacing:0.32em;}.cls-6{letter-spacing:0.33em;}.cls-7,.cls-8{font-size:55.72px;}.cls-7{letter-spacing:0.15em;}.cls-8{letter-spacing:0.15em;}</style></defs><g id="Layer_2" data-name="Layer 2"><g id="Layer_1-2" data-name="Layer 1"><polygon class="cls-1" points="524.8 9.65 364.13 288.38 351.22 310.73 333.51 341.51 322.22 361.06 310.93 341.51 293.14 310.73 280.25 288.38 262.46 257.63 243.88 289.89 231.46 311.44 213.88 341.96 202.87 361.03 191.58 341.44 172.19 307.89 160.9 288.34 40.69 80.11 28.14 58.37 10.56 27.94 0 9.65 22 9.65 32.55 27.94 50.11 58.37 62.66 80.11 171.87 269.24 183.2 288.82 202.55 322.38 220.17 291.86 232.59 270.31 251.17 238.04 262.46 218.46 273.76 238.04 291.54 268.79 304.44 291.18 322.19 321.93 339.93 291.18 352.83 268.79 502.22 9.65 524.8 9.65"/><polygon class="cls-1" points="467.56 9.65 457.01 27.94 439.43 58.37 426.88 80.11 335.32 238.72 324.03 258.31 311.61 236.75 292.98 204.49 277.55 178.14 381.37 55.58 300.13 178.14 322.89 217.16 402.03 80.11 414.59 58.37 432.17 27.94 92.63 27.94 110.21 58.37 122.76 80.11 201.9 217.16 224.67 178.14 143.42 55.58 247.25 178.14 231.81 204.49 213.19 236.75 200.77 258.31 189.48 238.72 97.92 80.11 85.36 58.37 67.78 27.94 57.24 9.65 467.56 9.65"/><path class="cls-1" d="M247.19,54.62c4.55,17.84,9.9,33.74,14.36,51.21l.3,0c4.66-17.92,10.76-33,15.51-51.23.66,1.28,23.5,46.46,35.11,69.49,1.39,2.76,1.67,2-.51,4.66Q300.47,142.89,289,157c-.24.28-.5.55-1,1.08-1.58-11.69-3.12-23.06-4.67-34.43s-3.1-22.71-4.85-34.1q-8.49,33.15-17,66.28h-.39l-15-65.66h-.24c-3.38,22.31-6.76,44.62-10.19,67.22-2.26-2.6-4.35-5-6.41-7.36-6.9-8-13.77-15.94-20.7-23.87a2,2,0,0,1-.24-2.7C221.19,100.79,246.64,55.58,247.19,54.62Z"/><path class="cls-1" d="M204.22,121.05,148.55,54.61l.07-.37c1.54,0,3.08.13,4.62.14q7.65,0,15.31.06,16.37,0,32.72,0c5.37,0,10.74.08,16.11.09,7.68,0,15.36,0,23,.05.52,0,1,0,1.79,0-.28.54-.47,1-.69,1.35-2.11,3.68-4.24,7.35-6.32,11a1.94,1.94,0,0,1-1.87,1.15c-7.29,0-14.57-.12-21.86-.11-9,0-18.05.09-27.35.15a53.46,53.46,0,0,0,4.61,5.28,5.64,5.64,0,0,0,3.5,1.1c5.58.08,11.17,0,16.75-.05l10.83-.11c-.9,1.61-1.69,3-2.47,4.44s-1.73,2.88-2.43,4.4A2.69,2.69,0,0,1,212,85c-4,0-7.94.13-11.91.23-.38,0-.76.1-1.39.18l4.83,5.58q5.13,5.88,10.27,11.74c.44.51.72.89.3,1.61-3.14,5.38-6.24,10.78-9.35,16.17A4.88,4.88,0,0,1,204.22,121.05Z"/><path class="cls-1" d="M280.82,54.45c.84,0,1.43-.1,2-.1q14.4.13,28.8.26c6.64.06,13.27.07,19.9.11l32.6.23c3.1,0,6.2,0,9.29,0,.86,0,1.71.12,2.83.21a10.15,10.15,0,0,1-.79,1.41c-3,3.57-6,7.18-9.12,10.66a4,4,0,0,1-2.64,1c-5,.07-10,0-15.06,0q-14.2-.06-28.41-.1c-4.75,0-9.5,0-14.45,0,.19.51.3.92.48,1.29Q313.1,83.83,320,98.17c.48,1,.9,1.15,1.86.53q17.29-11.07,34.62-22.07c.35-.23.72-.44,1.11-.66.64.9.1,1.49-.38,2l-15,17.34L318.15,123.2c-1.9,2.21-1.88,2.2-3.2-.45q-16.62-33.23-33.26-66.46C281.43,55.79,281.2,55.26,280.82,54.45Z"/><line class="cls-2" x1="565.91" y1="9.65" x2="565.91" y2="361.06"/><text class="cls-3" transform="translate(606.72 219.98)">FMC WEEKEND</text><text class="cls-4" transform="translate(614.67 333.35) scale(0.7)">CAN<tspan class="cls-5" x="297.83" y="0">V</tspan><tspan x="394.24" y="0">AS</tspan></text><text class="cls-6" transform="translate(1028.57 333.35)"> </text><text class="cls-4" transform="translate(1097.31 333.35) scale(0.7)">OF</text><text class="cls-6" transform="translate(1231.58 333.35)"> </text><text class="cls-4" transform="translate(1300.32 333.35) scale(0.7)">DREAMS</text><text class="cls-7" transform="translate(616.19 66.42)">9</text><text class="cls-8" transform="translate(645.89 47.86) scale(0.41)">TH</text><text class="cls-7" transform="translate(668.63 66.42)"><tspan xml:space="preserve"> - 11</tspan></text><text class="cls-8" transform="translate(768.81 47.86) scale(0.41)">TH</text><text class="cls-7" transform="translate(791.54 66.42)"><tspan xml:space="preserve"> APRIL 2021</tspan></text></g></g></svg>